<svg id="Camada_1" data-name="Camada 1" xmlns="http://www.w3.org/2000/svg" viewBox="0 0 1080 1080"><defs><style>.cls-1{fill:#fff;}</style></defs><title>Foguete</title><path class="cls-1" d="M747.16,756.92q14.22-14.89,28.37-29.87c7-7.45,7-10.13-.38-17-13.15-12.14-26.61-24-39.55-36.52-2.15-2.06-4-6.55-3.26-9.19a156.22,156.22,0,0,0,2.87-68.25c-1-5.56.34-8.22,6.06-10.26,36.74-13.11,73.32-26.66,110-40.09,12.55-4.61,13.52-8.8,4.38-18.4-28.39-29.85-56.88-59.61-85.09-89.64A29.72,29.72,0,0,0,753,428.12q-55.37-9.53-110.61-19.7c-4-.74-8.17-3.41-11.17-6.3-30.35-29.34-59.34-60.2-90.91-88.14-63-55.77-132.26-102.36-210.63-134.19-55.8-22.66-113.34-36.7-174.23-32.54-16.69,1.14-16.69,1.07-21.23,16V199.7c.46,2.28,1,4.55,1.36,6.84,2.57,16.41,4.2,33,7.82,49.19,17.1,76.39,52.51,144.45,97.28,207.85,50.11,71,108.6,134.1,178.51,186.22a21.45,21.45,0,0,1,7.08,10.66c10.61,37,20.65,74.15,31.36,111.11A29.29,29.29,0,0,0,466.37,785c31.84,27,64,53.49,96.11,80.15,10.52,8.75,14.71,7.46,18.55-5.74C591.93,822,602.92,784.52,613.61,747c1.39-4.87,3.39-7,8.62-6.79,5.76.19,11.82.36,17.29-1.15,15.34-4.23,30.45-9.32,47.44-14.63,12.35,10.12,26.82,22,41.29,33.87C737.35,765.72,738.85,765.64,747.16,756.92Zm-311-237.74c-41.53.13-76.23-34.83-75.72-76.28.52-41.73,34.6-75.5,75.93-75.24s75.4,34.45,75.3,75.84-34.14,75.55-75.55,75.68Z"/><path class="cls-1" d="M940.15,883q-63.93-66.54-126.93-134c-4.75-5-7.32-4-11,.71-8.13,10.39-16.61,20.51-24.94,30.75-7.54,9.28-7.52,9.92.63,18.26,39.69,40.58,79.57,81,118.92,121.9,7.53,7.83,15,11.48,26.09,11.16,25.29-.73,22.72,1,22.75-23.84C944.51,900.2,948,891.1,940.15,883Z"/><path class="cls-1" d="M837.4,672.74c-11.27,7.33-22.74,14.35-34,21.66-6.83,4.42-7.33,8.22-1.61,13.91q65.1,64.76,130.44,129.24c2.12,2.09,6.9,4.26,8.64,3.26,2.48-1.42,4.41-5.69,4.59-8.85.57-10,.21-20,.21-30.07,0-9.49.32-19-.17-28.48-.18-3.36-1.44-7.51-3.73-9.77-30.39-30-61.07-59.8-91.63-89.68C846.1,670,842.14,669.66,837.4,672.74Z"/><path class="cls-1" d="M723.55,792.64c-6.38-6.16-11.09-4.94-14,3.47-5,14.44-9.53,29-14.74,43.4-2.31,6.36-1.23,10.8,3.73,15.43,18.14,16.92,37,33.29,53.64,51.58,17.52,19.21,36.18,32.09,58.39,25,15.61,0,26.19.37,36.72-.22,3.12-.17,7.35-2.35,8.7-4.88,1-1.81-1.27-6.52-3.39-8.59Q788.27,855,723.55,792.64Z"/></svg>