<?xml version="1.0" encoding="utf-8"?>
<!-- Generator: Adobe Illustrator 24.0.1, SVG Export Plug-In . SVG Version: 6.00 Build 0)  -->
<svg version="1.1" id="Camada_1" xmlns="http://www.w3.org/2000/svg" xmlns:xlink="http://www.w3.org/1999/xlink" x="0px" y="0px"
	 viewBox="0 0 1080 1080" style="enable-background:new 0 0 1080 1080;" xml:space="preserve">
<style type="text/css">
	.st0{fill:#FFFFFF;}
</style>
<title>Missao</title>
<path class="st0" d="M1029,655.2c-22.6-32.7-65.7-43.9-102.7-26.5c-4.5,2.1-8,4.6-12.9-0.6c-20.3-21.5-56.3-30.6-85.2-12.7
	c-2.4,1.5-7.6,1.1-10.1-0.6c-33.6-22.6-67.7-23.3-102.8-3.9c-20.6,11.3-40.3,26.6-62.4,32.2s-46.8,0.9-70.3,1.6
	c-28.1,0.9-54.2-5.2-79.4-17.7c-45.5-22.7-93.3-26.8-142.5-14c-36.5,9.5-66.4,29.9-93.8,55.3c-11.5,10.6-25.9,18.2-41,28.5
	c-6.1-19.7-11.2-35.2-15.5-51c-2.8-10.2-8.4-14.4-19.1-14.3c-42.4,0.4-84.9,0.1-127.3,0.2c-15.5,0-19.5,5-17.6,20.3
	c6.2,49.9,12.3,99.8,18.3,149.6C73.4,873.8,82.2,946,91,1018.2c1.6,13.2,5.4,16.1,19,16.1c65.3,0,130.5,0,195.8,0
	c16.4,0,20.8-6.2,16-22.4c-7.6-24.9-14.9-49.8-22.8-74.6c-2.2-6.7-0.9-10.1,5.1-13.8c24.6-15.1,49-30.5,73.2-46.2
	c12.4-8,25.7-9.9,39.9-7.5c8.8,1.5,17.5,3.4,26.3,5c56.5,10,112.7,21.7,169.5,29.4c42.6,5.8,85.2-1.6,121.2-25.6
	c97.5-65.1,193.6-132.3,290.3-198.7C1036,672,1036.8,666.6,1029,655.2z M849.6,634.1c13.8-6.9,32.1-1,43.9,12.1l-117.5,63.4
	l-15.6-28.2C790,665.5,819.4,649.2,849.6,634.1z M796.3,632.9c-17.5,9.4-34,18.5-50.7,27.1c-2.4,1.3-6.3,1.7-8.7,0.7
	c-10.3-4.6-20.2-9.9-30.1-14.8C739.8,621.3,772.6,616.1,796.3,632.9L796.3,632.9z M292.7,1008.2h-177
	C101.5,891.5,87.3,775,72.9,657.4h68.2c12.8,0,25.7-0.4,38.5,0.3c3.2,0.2,8.1,3.3,8.9,6c35.1,113.9,69.9,227.9,104.5,342
	C293,1006.5,292.9,1007.4,292.7,1008.2z M934.3,710.7c-70.5,48.4-140.5,97.6-211.8,144.9c-32.5,21.6-70.5,27.8-108.8,22.9
	c-40.6-5.2-80.7-13.6-121.1-20.8c-24.5-4.4-49-9.5-73.6-13.5c-19.3-3.2-37.6,0.1-54.4,10.7c-21.9,14-43.9,27.9-66,41.7
	c-2.9,1.8-6,3.5-10.3,5.9c-18.8-61.7-37.3-122.4-56.2-184.2c29.5-8.3,48.8-29.9,71.1-47.4c56.4-44.2,118.8-52,183.8-22.7
	c33.7,15.2,67.5,23.5,104.3,22.1c28.8-1.1,57.8-0.4,86.7-0.1c7.8-0.1,15.6,0.8,23.3,2.5c26.4,6.6,47.5,29.6,51,55.9
	c-27.3-1.1-53.7-3.1-80-3.1c-29.2,0-58.4,1.6-87.5,3.1c-11.2,0.6-16.7,6.6-15.3,15c1.8,10.2,9.2,11.6,17.8,10.4
	c57.4-7.7,114.7-1.1,172,0.7c15.6,0.5,16.9-0.2,21.1-15.4c0.7-2.6,3.5-5.2,6-6.5c49.5-26.8,99-53.6,148.7-80
	c23.5-12.5,50.4-7.8,66.7,11.1C979.4,679.7,956.9,695.2,934.3,710.7z"/>
<path class="st0" d="M162.5,505c64.9,0,129.8,0,194.7,0c4.1,0,8.2,0.4,12.9,0.7c0,9.4-0.1,17.6,0,25.7c0.3,11.5,4,15.4,15.6,15.4
	c102.7,0.1,205.4,0.1,308.1,0c12.1,0,15.6-3.8,15.9-16.3c0.2-8.1,0-16.3,0-25.5h28.8c60.3,0,120.5,0,180.8,0
	c14.4,0,18.4-4.2,18.4-18.5c0-27.1,0.5-54.2-0.2-81.3c-1.1-46.4-37.4-86-83.1-92c-8.4-1.1-14.8,0.6-20.8,7.3
	c-25.8,28.4-64.7,28.2-89.9-0.3c-5-5.7-10.5-8.9-17.7-7.3c-14.4,3.2-28.7,7.1-44.4,11c-15.5-16.7-36-28.6-60.6-33.5
	c-11.8-2.4-20.5-0.5-29.3,9.2c-26.5,29.5-72.4,30.5-98.8,1.5c-11.1-12.1-21.9-13.2-36-10.3c-24.3,5-44.2,17.2-59.8,34
	c-13-4-24.8-8-36.7-11.2c-8.9-2.4-16,0.1-22.8,7.5c-25.7,27.9-63.9,27.5-89.1-0.5c-5.3-5.9-10.9-8.1-18.7-7.6
	c-46.5,2.4-86.8,43.8-88.1,91.7c-0.8,26.7-0.2,53.5-0.2,80.2C141.6,501.6,145.2,505,162.5,505z M721.9,339.3
	c2.3-0.5,5.8,1.9,7.9,3.9c36,32.1,81.3,32.1,118.1,0.4c2.8-2.4,8.4-3.5,12-2.7c28.2,6.6,50.4,32.8,51.9,62.1
	c1.1,21.7,0.3,43.5,0.4,65.2c0,3.2,0,6.4,0,10.6H709.9c0-22.5-0.2-44.5,0.1-66.5s-0.8-43.5-12.4-65.3
	C706.1,344.2,713.9,341.2,721.9,339.3z M396,396.2c0.6-39.8,27.4-72.2,65.8-79.8c4-0.8,9.9,1,12.9,3.8c39,36.4,94.5,36.9,133,0.3
	c4.5-4.3,8.3-5.1,14.1-3.6c33.8,8.5,60.3,37.6,61.5,72.2c1.5,43.4,0.3,86.9,0.3,131.6H396.8c-0.5-2.6-0.7-5.3-0.9-8
	C395.8,473.9,395.4,435,396,396.2z M167.8,402.8c1.5-30.6,25.3-56.8,55.3-62.8c3.9-0.5,7.9,0.5,11.1,3
	c36.2,32.1,82.1,32.3,118.1,0.5c3.1-2.4,7.1-3.4,11-2.9c6.1,1.1,11.9,4.1,18.2,6.4c-19.9,42.9-7.2,87.5-12.4,131.4H167.5
	C167.5,452.7,166.5,427.7,167.8,402.8L167.8,402.8z"/>
<path class="st0" d="M443,190.5c3,49.3,39.7,86.5,89.9,91.2c46.3,4.4,91.5-27,100.9-74.2c4.7-23.7,4.3-49,2.6-73.3
	c-3.6-49.2-43.2-85.9-92.5-88.4c-47.1-2.4-90.1,31.1-99.3,78.6c-2.5,12.8-1.9,26.3-2.7,39.4l1.1,0.1
	C442.9,172.7,442.5,181.6,443,190.5z M471.7,122.2c8.5-31.8,40.7-53.3,73-50.8c34.4,2.7,62.7,28.2,65.8,62.1
	c1.9,20.2,1.9,40.5,0,60.7c-3.5,36.3-36.2,63.5-72.1,62.3c-37.3-1.2-67.1-29.5-69.7-66.4c-0.6-8.9-0.1-17.8-0.1-26.7l-1.6-0.1
	C468.4,149.6,468.1,135.4,471.7,122.2z"/>
<path class="st0" d="M205.6,228.7c2.1,43.9,37.6,78.9,82.5,81.6c42.2,2.5,82.6-28.7,88.8-70.6c2.8-19.2,2.8-39.1,1.7-58.6
	c-2.4-44.3-36.7-77.9-81.5-81.5c-41.3-3.3-80.6,26.1-89.6,68.4c-2.6,12.1-2.1,24.8-3,37.2l1.1,0.1
	C205.5,213,205.2,220.9,205.6,228.7z M231.1,185c1-33.6,27.2-59.5,60.2-60s60.5,25.9,62,59.6c0.3,6.8,0,13.6,0,20.3l0.8,0.1
	c-0.8,10.3-0.5,20.8-2.5,30.8c-5.8,30.1-34,51.4-63.6,48.8c-31.5-2.7-55.4-26.8-56.8-57.8C230.6,212.9,230.7,198.9,231.1,185z"/>
<path class="st0" d="M782.3,310.2c41.1,3.3,80.2-25.5,89.4-67.3c2.8-12.4,2.4-25.4,3.5-38.2l-1.2-0.1c0-7.8,0.3-15.7,0-23.5
	c-2.1-44.1-37-78.7-82.3-81.7c-42.4-2.8-82.9,28.7-89.1,71.5c-2.7,18.9-2.6,38.4-1.6,57.6C703.2,272.7,737.8,306.6,782.3,310.2z
	 M728.3,174.1c4.2-29.9,32.9-50.9,62.2-49c31.9,2.1,56.3,26.4,57.9,57.9c0.4,7.5,0,15,0,22.5h0.8c-0.7,10.6-0.1,21.6-2.3,31.9
	c-6.1,28.3-32.3,48.2-60.7,47.4c-28.9-0.8-54.4-21.1-58.2-50.1C725.4,214.5,725.5,194.1,728.3,174.1z"/>
<path class="st0" d="M196.6,915c-21.8,0.1-40,18.4-40,40.3c-0.1,22.3,17.9,40.5,40.2,40.6c22.3,0.1,40.5-17.9,40.6-40.2l0,0
	C237.6,933.6,218.8,914.9,196.6,915z M196.8,970c-7.8-0.1-14.2-6.4-14.5-14.2c-0.1-8.2,6.5-15,14.8-15.1c7.6,0.1,14.4,6.8,14.6,14.3
	c0.1,8.2-6.4,14.9-14.5,15C197,970,196.9,970.1,196.8,970L196.8,970z"/>
</svg>
