<?xml version="1.0" encoding="utf-8"?>
<!-- Generator: Adobe Illustrator 24.0.1, SVG Export Plug-In . SVG Version: 6.00 Build 0)  -->
<svg version="1.1" id="Camada_1" xmlns="http://www.w3.org/2000/svg" xmlns:xlink="http://www.w3.org/1999/xlink" x="0px" y="0px"
	 viewBox="0 0 1080 1080" style="enable-background:new 0 0 1080 1080;" xml:space="preserve">
<style type="text/css">
	.st0{fill:#FFFFFF;}
</style>
<title>Olho</title>
<path class="st0" d="M1031.3,512.3c-32.7-41.9-68.9-80.9-108.2-116.6c-68.4-62.2-143.2-114.5-230.4-147.5
	C635,226.4,575.2,216,513.4,220.1c-75.7,5.1-145.3,30.3-210.5,67.8C203.6,345.1,121,421.5,49.9,510.8c-5.6,7-9.4,15.5-14.1,23.3
	v11.8c4.3,7.3,7.7,15.2,12.9,21.8c32.7,41.9,68.9,80.9,108.2,116.6c68.4,62.2,143.3,114.4,230.4,147.5
	c57.8,21.9,117.5,32.3,179.3,28.1c75.7-5.1,145.2-30.4,210.4-67.9c98.5-56.6,180.4-132.3,251.3-220.4c6.3-7.8,10.6-17.1,15.9-25.7
	v-11.8C1040,526.8,1036.5,518.9,1031.3,512.3z M953.7,557.3c-58,66.3-122.5,124.9-198.4,170.4c-55.9,33.5-115.3,57.6-180.8,64.8
	c-51.1,5.6-100.7-1.4-149.2-17.9C344.5,747,275,700.6,212.4,643.8c-35.3-32.1-68-67.2-103.3-102.4c21.9-23.7,40.9-45.4,61.1-65.8
	C225.4,419.9,286,371.1,356,335c62.7-32.3,128.5-52.2,200.1-48.8c46.8,2.2,91.2,14.4,133.9,32.8c85.6,37.1,157.4,93.5,222.4,159.4
	c19.3,19.5,37.4,40.2,56.6,60.9C963.3,545.9,958.6,551.7,953.7,557.3L953.7,557.3z"/>
<path class="st0" d="M540.4,341.1c-110-0.4-199.7,89-199.7,198.9c0.1,109.7,88.8,198.4,198.8,198.8s199.7-89,199.7-198.9
	C739.2,430.3,650.4,341.5,540.4,341.1z M540.3,672.7c-73.1,0.5-133.8-60.1-133.2-133.1c0.5-73.3,60-132.5,133-132.3
	c73.3,0.2,132.5,59.4,132.7,132.6S613.8,672.2,540.3,672.7z"/>
</svg>
