<svg id="Camada_1" data-name="Camada 1" xmlns="http://www.w3.org/2000/svg" viewBox="0 0 1080 1080"><defs><style>.cls-1{fill:#3c096c;}</style></defs><title>SVG CASINHA</title><path class="cls-1" d="M626,371.62l0-13.51,0-53.49,70.89.7,18.11.3s.58,87-.37,117.5c-.48,15.51,4.91,26.28,16.93,35.56q30.9,23.88,60.46,49.47c5.43,4.69,38,31.47,38,31.47l-48.23.33-39.77.67s-.08,152.69.73,207.58c.3,19.84-5.83,27.36-27,27.18q-177.73-1.49-355.48-.2c-21,.16-27.31-6.61-27-26.85.9-60.11,1.73-208.71,1.73-208.71l-29,.1-56-.1S441.5,379.34,514.87,317.19c18.07-15.31,30.88-13.82,47.06.92C580.82,335.31,626,371.62,626,371.62Zm135,141s-37.32-27.86-47-36c-11-9.23-23-21-30.24-48.68C679,409.62,682,335.62,682,335.62H657s.28,7.65.31,16.17c.05,14.82-.25,29.64-.06,44.45.13,9.63-3.36,17.34-12,21.45-8.27,3.95-14.46-.76-20.83-6.24C604.07,393.92,539,339.62,539,339.62l-24.34,18.6L326,514.62h39s-.1,145-.84,205.1c-.21,16.89,2.91,24.83,22.54,24.65Q538.34,743,690,744.3c17.74.13,22-6.24,21.74-22.75C711,661.42,711,511.62,711,511.62Z"/><path class="cls-1" d="M531.34,685.92c-24-1.43-51.94-8.27-73.63-31.46-6.69-7.16-10.61-15-3.47-22.77,6.72-7.31,15.7-6.13,23.52-.09,40,30.88,80,32.77,120.4.7,8-6.34,18.12-9.14,25.73-.3,8.18,9.51,1.48,18-5.87,24.58C595.19,677.14,568.05,686.34,531.34,685.92Z"/><path class="cls-1" d="M511.61,538.88c-.69,12,4.52,29-15.05,29.27-19.9.23-15.29-16.95-15.25-29,0-11.24-4.62-27.63,13.18-28.34S513.29,524.8,511.61,538.88Z"/><path class="cls-1" d="M596.88,539.77c-.14,13.33,2.65,29.08-14.94,28.54-21-.65-14.61-19-15.82-31.79-1.26-13.21.81-26.68,16.93-25.72C602.92,512,595.12,529.66,596.88,539.77Z"/></svg>