<?xml version="1.0" encoding="utf-8"?>
<!-- Generator: Adobe Illustrator 24.0.1, SVG Export Plug-In . SVG Version: 6.00 Build 0)  -->
<svg version="1.1" id="Camada_1" xmlns="http://www.w3.org/2000/svg" xmlns:xlink="http://www.w3.org/1999/xlink" x="0px" y="0px"
	 viewBox="0 0 1080 1080" style="enable-background:new 0 0 1080 1080;" xml:space="preserve">
<style type="text/css">
	.st0{fill:#3C096C;}
	.st1{fill:#FF9100;}
</style>
<title>SVG LOGO</title>
<g>
	<path class="st0" d="M414.4,333.4l82.3,108.9l-118,60.8l149.1,143.2v26l-156.2,78.1L7,568.1V359.8l364.5-182.3l113.1,113.1
		 M371.5,698.3l104.2-52L319.5,490l104.2-52l-52-52l-104.2,52l-52-52l208.2-104.2l-52-52L59.1,385.9L371.5,698.3z"/>
	<path class="st0" d="M398.1,311.6l113.8-56.9l37.9,37.9v-56.9l113.8-56.9l75.9,75.9v113.8l113.8,113.8v19l-113.8,56.9l-75.9-37.9
		l-180.9-60.5 M739.5,520.2l75.9-37.9L701.5,368.5V254.7l-37.9-37.9l-75.9,37.9l37.9,37.9v56.9l-75.9-19l-37.9-37.9L436,330.6
		l38,37.9l151.7,37.9L739.5,520.2z"/>
	<path class="st1" d="M689.4,773.4l26.6-13.8l117.7,59.5l-53.2,27.8l-117.7-59.5l-53.2,27.8l117.7,59.5l-53.2,27.8L399.5,763.6
		l132.9-69.5l39.3,19.8l26.6-14l78.5,39.7l-26.7,13.9L689.4,773.4z M545.1,727.8l-53.2,27.8l78.6,39.6l53.2-27.8L545.1,727.8z"/>
	<path class="st1" d="M860.3,805.1L585.7,666.3l133-69.5l39.2,19.8l-79.8,41.7l78.5,39.7l79.8-41.7l39.2,19.8l-79.8,41.7l78.5,39.7
		l79.8-41.7l39.2,19.9L860.3,805.1z"/>
	<path class="st1" d="M995.8,572.9l39.2,19.8l-79.8,41.7l117.7,59.5l-53.2,27.8L745.2,582.9l133-69.5l39.2,19.8l26.6-13.9l78.5,39.8
		L995.8,572.9z M890.8,547.1l-53.2,27.8l78.5,39.7l53.2-27.8L890.8,547.1z"/>
</g>
</svg>
