<svg id="Camada_1" data-name="Camada 1" xmlns="http://www.w3.org/2000/svg" viewBox="0 0 1080 1080"><defs><style>.cls-1{fill:#3c096c;}.cls-2{fill:#ff9100;}</style></defs><title>SVG LOGO</title><path class="cls-1" d="M441.06,377.2,505.87,463l-92.95,47.9L530.37,623.71v20.52L407.28,705.78,120.07,562.17V398.05l287.21-143.6,89.09,89.09M407.28,664.75l82.06-41L366.25,500.63l82.06-41-41-41-82.06,41-41-41L448.31,336.5l-41-41L161.1,418.57Z"/><path class="cls-1" d="M428.19,360.06l89.66-44.83,29.88,29.89V300.29l89.65-44.83,59.77,59.77v89.65l89.66,89.66v14.94l-89.66,44.83-59.77-29.89-142.54-47.7m202.31,47.7,59.77-29.88-89.65-89.66V315.23l-29.89-29.88-59.76,29.88,29.88,29.89v44.82L547.73,375l-29.88-29.88L458.08,375,488,404.88,607.5,434.77Z"/><path class="cls-2" d="M657.71,723.91,678.66,713l92.72,46.89-41.9,21.9-92.72-46.89-41.9,21.9,92.73,46.89-41.91,21.9L429.33,716.14l104.74-54.76L565,677l20.95-11,61.82,31.27-21,10.95ZM544,688l-41.9,21.91L564,741.13l41.9-21.9Z"/><path class="cls-2" d="M792.33,748.9,576,639.48l104.75-54.75,30.91,15.63-62.85,32.85,61.82,31.26,62.85-32.85,30.9,15.63L741.51,680.1l61.81,31.27,62.85-32.86,30.91,15.64Z"/><path class="cls-2" d="M899.14,565.92l30.91,15.63L867.2,614.4l92.73,46.89L918,683.19,701.67,573.78,806.42,519l30.9,15.63,20.95-10.95L920.09,555Zm-82.76-20.31-41.9,21.9,61.81,31.26,41.9-21.9Z"/></svg>