<?xml version="1.0" encoding="utf-8"?>
<!-- Generator: Adobe Illustrator 24.0.1, SVG Export Plug-In . SVG Version: 6.00 Build 0)  -->
<svg version="1.1" id="Camada_1" xmlns="http://www.w3.org/2000/svg" xmlns:xlink="http://www.w3.org/1999/xlink" x="0px" y="0px"
	 viewBox="0 0 1080 1080" style="enable-background:new 0 0 1080 1080;" xml:space="preserve">
<style type="text/css">
	.st0{fill:#3C096C;}
</style>
<title>SVG CASINHA</title>
<path class="st0" d="M696.6,233.4v-24.6v-97.4l129.1,1.3l33,0.5c0,0,1.1,158.4-0.7,213.9c-0.9,28.2,8.9,47.8,30.8,64.7
	c37.5,29,74.2,59,110.1,90.1c9.9,8.5,69.2,57.3,69.2,57.3l-87.8,0.6l-72.4,1.2c0,0-0.1,278,1.3,377.9c0.5,36.1-10.6,49.8-49.2,49.5
	c-215.7-1.8-431.4-1.9-647.2-0.4c-38.2,0.3-49.7-12-49.2-48.9c1.6-109.4,3.1-380,3.1-380l-52.8,0.2l-102-0.2
	c0,0,348.6-291.8,482.2-405c32.9-27.9,56.2-25.2,85.7,1.7C614.3,167.3,696.6,233.4,696.6,233.4z M942.3,490.2
	c0,0-67.9-50.7-85.6-65.5c-20-16.8-41.9-38.2-55.1-88.6c-8.7-33.4-3.2-168.1-3.2-168.1H753c0,0,0.5,13.9,0.6,29.4
	c0.1,27-0.5,54-0.1,80.9c0.2,17.5-6.1,31.6-21.8,39.1c-15.1,7.2-26.3-1.4-37.9-11.4c-37-31.9-155.5-130.8-155.5-130.8l-44.3,33.9
	L150.4,493.8h71c0,0-0.2,264-1.5,373.4c-0.4,30.7,5.3,45.2,41,44.9c184-1.7,368.1-1.7,552.2-0.1c32.3,0.2,40.1-11.4,39.6-41.4
	c-1.3-109.5-1.3-382.2-1.3-382.2L942.3,490.2z"/>
<path class="st0" d="M524.2,805.7c-43.7-2.6-94.6-15.1-134.1-57.3c-12.2-13-19.3-27.3-6.3-41.5c12.2-13.3,28.6-11.2,42.8-0.2
	c72.8,56.2,145.6,59.7,219.2,1.3c14.6-11.5,33-16.6,46.8-0.5c14.9,17.3,2.7,32.8-10.7,44.8C640.5,789.7,591.1,806.4,524.2,805.7z"/>
<path class="st0" d="M488.3,538c-1.3,21.8,8.2,52.8-27.4,53.3c-36.2,0.4-27.8-30.9-27.8-52.8c0-20.5-8.4-50.3,24-51.6
	S491.4,512.3,488.3,538z"/>
<path class="st0" d="M643.5,539.6c-0.3,24.3,4.8,52.9-27.2,52c-38.2-1.2-26.6-34.6-28.8-57.9c-2.3-24.1,1.5-48.6,30.8-46.8
	C654.5,489,640.3,521.2,643.5,539.6z"/>
</svg>
